/* XPM */
static char *ba40edd11d704d0d89244c2d144c2912uJRvpTiBEg5r7eOT[] = {
/* columns rows colors chars-per-pixel */
"64 64 256 2 ",
"   c #190A06",
".  c #161100",
"X  c #280505",
"o  c #370B03",
"O  c #3A140A",
"+  c #3A1216",
"@  c #310F09",
"#  c #07311D",
"$  c #362D10",
"%  c #232924",
"&  c #481804",
"*  c #481819",
"=  c #4B1609",
"-  c #4B2508",
";  c #562707",
":  c #593404",
">  c #4B2819",
",  c #592B18",
"<  c #5A3719",
"1  c #4A3811",
"2  c #663808",
"3  c #653816",
"4  c #6C350C",
"5  c #48192A",
"6  c #400F25",
"7  c #582928",
"8  c #563131",
"9  c #683A25",
"0  c #643337",
"q  c #3D5B2D",
"w  c #3D5738",
"e  c #344E33",
"r  c #1C4F39",
"t  c #545017",
"y  c #6A461A",
"u  c #784818",
"i  c #7B541B",
"p  c #6E5114",
"a  c #445D2E",
"s  c #4C5C2B",
"d  c #4B5726",
"f  c #525D2B",
"g  c #555928",
"h  c #435635",
"j  c #455D34",
"k  c #495E35",
"l  c #42543C",
"z  c #445D39",
"x  c #4A5E3A",
"c  c #495433",
"v  c #575B38",
"b  c #4E4B30",
"n  c #674527",
"m  c #784825",
"M  c #63592A",
"N  c #7A5526",
"B  c #794B36",
"V  c #675838",
"C  c #715037",
"Z  c #466234",
"A  c #4A6435",
"S  c #456239",
"D  c #4A643B",
"F  c #4D693C",
"G  c #4C6936",
"H  c #52643B",
"J  c #516B3D",
"K  c #586537",
"L  c #51632E",
"P  c #65653A",
"I  c #746531",
"U  c #693645",
"Y  c #325545",
"T  c #356855",
"R  c #377966",
"E  c #425342",
"W  c #495D43",
"Q  c #4A5845",
"!  c #55564B",
"~  c #6B524B",
"^  c #4C6444",
"/  c #4E6942",
"(  c #4D654A",
")  c #4E694A",
"_  c #456444",
"`  c #526D45",
"'  c #52664A",
"]  c #5B644D",
"[  c #526B4A",
"{  c #586947",
"}  c #547146",
"|  c #4F6451",
" . c #5A6C5C",
".. c #566854",
"X. c #4E7359",
"o. c #656647",
"O. c #696757",
"+. c #746C5C",
"@. c #75715E",
"#. c #736A4A",
"$. c #5D6E65",
"%. c #5C7668",
"&. c #626E69",
"*. c #63716C",
"=. c #627166",
"-. c #656F77",
";. c #6A7474",
":. c #6B737D",
">. c #667273",
",. c #787778",
"<. c #786D6B",
"1. c #87551C",
"2. c #845010",
"3. c #875929",
"4. c #875836",
"5. c #8B542D",
"6. c #896628",
"7. c #94662B",
"8. c #896838",
"9. c #956A38",
"0. c #8B753A",
"q. c #977639",
"w. c #94722D",
"e. c #A27B3D",
"r. c #A0693D",
"t. c #8E6516",
"y. c #8B5846",
"u. c #835756",
"i. c #956A47",
"p. c #8B7648",
"a. c #9A7946",
"s. c #976756",
"d. c #967854",
"f. c #8B6E4E",
"g. c #A57A46",
"h. c #A77B55",
"j. c #AC7845",
"k. c #897568",
"l. c #877575",
"z. c #9B7774",
"x. c #8D716B",
"c. c #A57C79",
"v. c #A57A69",
"b. c #4E8D79",
"n. c #708B6E",
"m. c #9D843E",
"M. c #A5853D",
"N. c #B8852C",
"B. c #D09B3F",
"V. c #958953",
"C. c #A4814B",
"Z. c #AC8B4A",
"A. c #A88646",
"S. c #B68849",
"D. c #A98857",
"F. c #B58B59",
"G. c #AB9655",
"H. c #B89758",
"J. c #AF9448",
"K. c #BAA25A",
"L. c #969069",
"P. c #A99868",
"I. c #B89865",
"U. c #AA837B",
"Y. c #B79671",
"T. c #B18971",
"R. c #BBA666",
"E. c #B3A579",
"W. c #B4AC76",
"Q. c #C9954C",
"!. c #C49858",
"~. c #CA9555",
"^. c #CDA45C",
"/. c #C49B66",
"(. c #C4947B",
"). c #C7A869",
"_. c #D5A869",
"`. c #C8A775",
"'. c #CAB575",
"]. c #D7B878",
"[. c #CEB16D",
"{. c #E9B974",
"}. c #E0AB4D",
"|. c #D8C47D",
" X c #F0C679",
".X c #6D7384",
"XX c #6F7689",
"oX c #767988",
"OX c #797D92",
"+X c #6A6F82",
"@X c #867A86",
"#X c #967D80",
"$X c #AD7B88",
"%X c #719C85",
"&X c #6FAC96",
"*X c #87858A",
"=X c #8D8991",
"-X c #AA8184",
";X c #B38582",
":X c #BB9E80",
">X c #98AA89",
",X c #BCB788",
"<X c #B8AF8C",
"1X c #9DBFAF",
"2X c #C6998F",
"3X c #CBB98A",
"4X c #D6B986",
"5X c #CAB08D",
"6X c #E5BD89",
"7X c #EBB593",
"8X c #CEB1A8",
"9X c #A7CEB2",
"0X c #D9C687",
"qX c #D7C995",
"wX c #D1CA96",
"eX c #E4C989",
"rX c #E7D38C",
"tX c #E7C995",
"yX c #E8D696",
"uX c #F9D89A",
"iX c #F7CF9E",
"pX c #F1E19C",
"aX c #DAD8A8",
"sX c #D4D1AF",
"dX c #E6D9A8",
"fX c #F8DBA5",
"gX c #E9DCB6",
"hX c #EBCEAB",
"jX c #D9E5BC",
"kX c #CEE3BA",
"lX c #ECE4A9",
"zX c #F8E7A8",
"xX c #ECE4B8",
"cX c #F9E9B7",
"vX c #FCF3BC",
"bX c #FDF6B7",
"nX c #FFF9AF",
"mX c #CFD6C9",
"MX c #F1DBC4",
"NX c #EBE8C6",
"BX c #FAEBC9",
"VX c #FDF4C4",
"CX c #FEFCCC",
"ZX c #F9F6C7",
"AX c #FEFBDB",
"SX c #FBF9D5",
"DX c #EEF5D4",
"FX c #E8F8EB",
"GX c #FEFCE4",
"HX c #FFFEEA",
"JX c #F8F7E6",
"KX c #EBFAF7",
"LX c #FCFEF6",
"PX c #E5E6E1",
"IX c #D7E6C7",
"UX c #99D8C5",
/* pixels */
"c.c.$Xc.U.$XU.U.;X;X;X;X;X-X;X;XT.(.$Xc.;X2X$X$X$X@XmX~ PXLXHXGXGXGXFXHXk.v.x.x.@X@X@X@X@X@X*X#X=X=XOX@X%X@XOXOXXX+XXXXXXXOXOXOX",
"c.z.c.c.z.z.c.z.z.c.z.c.U.U.U.U.c.U.v.c.s.z.$X#Xl.2XLXLXLXLX=XAXGXHXDXGX8XL.s.k.,.l.l.@Xl.@X@X@X@X=XOXOXoXoXXX+X+X+X+X.XXXXXOXXX",
"k.k.k.k.k.k.k.k.k.k.k.k.k.k.k.k.x.k.k.z.x.x.#XU JXHXJXLXmXHXAXxXSXSXGXSXGXMXBX+.<.<.,.<.<.@XoX@X@XoXOXXXoX:..X.X+X+X+X+X.X.XXXXX",
"O.O.O.O.<.O.+.+.@.+.@.@.@.@.@.@.@.O.*.O.x.<.u.MXMXMXBXsXAXSXAXZXSXNXZXBXBXAXMXsX~ O.<.,.+Xl.,.oXoX,.:..X:.:.:.:.:.-.-.-.-.:.:.+X",
"] ! ] ' ] ] ] ] ] ] ] ] ..] ] ] ] ]  . .~ ! V T.sX<X5X5XdXlXZXCXZXvXZXvXcXSXBXBX<X! +.<.,.,.;.;.;.;.;.;.;.;.;.-.&.-.&.-.-.-.-.:.",
"W W W W Q Q W W ( W ( W / ^ ( ( W W E !   5 k.5X<X:X$ BXlXxXZXCXxXxXlXcXdXVXNXZXSX~ ] O.O.=.*.=.*.*.*.*.*.*.=.=.$.$.-.-.*.*.*.$.",
"^ W W W _ W W W ^ W ^ ^ ^ ^ ^ W W ' Q O.l.z.b gXwXVXhXzXyXlXZXCXCXnXlXpXlXdXVXcXxXV.V ! .. .$. .=.=.=.=.$.$.$.$.$.$.$.$.$.$.$...",
"^ ^ ( ^ ( _ ( _ ^ ( ( ( ( ^ ( ^ ^ W Q   ~ 8 U.d.3XNX8.- VXP.ZXSXvXzXrXG.R.lXCXCXqXqXP v Q | (  . . .}  . . . . . . ...$.| $.| | ",
"' ^ ' ^ ' ( ( ( ' ' ' [ ' [ ' [ ^ { ]   $X<X> #.gXVXhXcXqXqXgXxXV.pXrX6.uXfXbXvXlX0Xp.v ! ' ^ | ) ..............| | | | | | | Q ",
"' ( ' ( ' ) ) ) [ [ ' [ [ [ ' ' } { O.  X X X C 1 d.4X4XiXV.I p.0.V.|.uX6X'.yXCXlX0X`.L.v Q W ( ) ) ) ) ) ( ( ( | ( ( ( ( ( | | ",
"[ ( ( [ [ ) [ [ [ [ [ [ } ` ..} } o.-X  X + $ Y.I < i.9.3 8.N VXfXtX].C.p N 4XbX].].4.8.v x ( ( ) ) ) ) ) _ ( ( ( ( ( ( ( ( _ ( ",
"^ [ [ ( [ [ [ [ ..[ [ [ [ ..} } { o.<.+ 6 6 8X9 , 9 & B N g.fX4XD.g.0Xa.m 3.F.H.8.I.3.4.P v ' [ ) ) ) ..) ) ' ( ) ( ( ^ ( ( ( ( ",
"[ ) ) [ [ [ [ [ [ [ } ..[ [ } ..o.NX2X7 X 8 @ s.O s., , 5.; j.j.3 : 3 ; u 4.9.C.q.Z.j.9.E.o.' _ ) ) ) ) ' [ ) [ ' ( ( ' ( ) ) ) ",
"[ [ [ [ [ [ [ [ [ [ [ } [ } } { O.$ F.4.o 0 @ * & 4.= BXF.5.; ; m Y.3 , y.u h.j.e.3.1.9.p.V [ [ ) ) ) ) [ [ ` ' [ [ [ ( ( ) _ ) ",
"[ [ [ [ [ } [ } [ [ [ [ } [ }  .o.t 1.u - O @ + 5 = > Y.iX7Xs., d.- & = 4.u 5.j.j.2.7.4 N g ' _ ) [ [ [ [ ^ ' ' ( [ [ [ ) ) ) ) ",
"[ [ [ [ [ [ [ } } [ } [ [ } ..{ o.O p 7.O X + X 5 * 7 - cXm ; = o o 9 * = y.4 _.j.u 4 i a.V ] ) ) [ [ [ [ ' ` [ ( [ [ [ ) ) ) ) ",
"[ [ } [ [ [ ` ` ` ` [ [ } [ { { O.#.q.2.= X 6 5 6 u.* o : (.9 7 = 7 6 U 0 4.~.Q.j.j.: tXd.o.{ ) [ ) ) [ [ [ [ ( ) [ ) [ ) ) [ ) ",
"} [ ..} } [ ` ` { ` ` ` [ ` } } o.$ a.u 4 = 6 5 U c.7 , B 4.y.= 7 0 5 8 U y.2.Q.~.S.S.0.v o.' ) ) ..[ [ [ X.[ [ [ | ) ..) [ ( ) ",
"[ } [ [ [ } [ } ` ` } [ } [ ` [  .c tX4 3 = 6 6 0 = 6 , d.5.5.s.y.s.* 7 ~ i.Q.{.~.1.6.V.! ] [ ) ) [ [ ..[ ....} [ ) [ ) [ ) ) ) ",
"} X.} [ } [ ` ` ` ` ` ` [ ` [ [ ..o.1 2 4 = O + (.9 * 7 4.s.9 7X, , , 9 m ~.}.B._._.uXp.o.{ [ [ [ ..[ [ [ [ [ ....) [ ) ) ) ) ..",
"..} { } } } } [ } { ` ` ` ` [ } X.o.X qXN /.& 4.r.4 = 0 9 F.j.4 1.t.fXzXw.{.}.B.2.uXzXa.K ' [ [ [ [ [ [ X.[ [ [ [ [ [ ( [ [ ( [ ",
"} [ [ } ..` } } } [ [ ` } ` } ....{ 1 d.hX0XfX7.}.{., 0 5.u 5.5.{.4 e.2.t.2.B.N.^.zXbXy o.) ) } [ [ [ [ [ [ [ [ [ [ [ [ ) ) ` ) ",
"} [ [ } { } { ` } { [ } } } ` } } } #.y vXVX4 _.{.7Xm MX2X4 1.5.4 ~._.fXuX_.~.{.iXbXg.y J } ^ ^ [ [ [ [ [ X.[ [ [ [ ` [ ` / ^ ` ",
"..} } [ [ } } [ } } } } [ { ` } ` } P n p.eXj.S.}.Q.m B 9 = 5.u 5.h.h.4.y w.2 u H.F.a.V.J / / [ ) [ } [ } [ ` [ ) [ ) ` ) ) ) ^ ",
"} [ } [ } ` } ` } ` } } ` [ } ` ` K #.L.BX& 9.9.2.4 4.y.= 4.4.9.i._.g.D.F.8.g.F.q.g.q.I K J ` [ ^ ` ` ) ` ) / / / ` ` / / / ^ D ",
"} [ ` } ` ` ` } ` } } } } ` ` ` } { P $ P.- N u 4 5.4.B = iXy u ~.h.g.3.C.0.9./.tXI.u 8.J F ' ' ` ) ` ` / / ) / ^ / ) ^ / ^ ^ / ",
"} [ ` [ ` ` ` ` ` ` ` } } ` ` ` J { P M cXn 4 j.= m n B - D.8.N j._.F./.C.Y.i.F.Z.F.M.p L } ' { / ` / ` ` / / / ` / / F F ^ D D ",
"` ` ` ` ` ` ` ` ` ` { } ` } ` ` { { K dXY.& F.y 3 m 4.3 2X8.D.C._.i.9._.'.I.F.g.9.H.w.M K } D ' / / / / ` / / / F / D ^ ^ D ^ D ",
"{ ` ` ` ` ` ` ` J ` ` ` } ` ` ` ` J P P 8.; cXD.a.F.5.& 9.D.a.8.: 1._.tXzXR.Y.D.].F.w.M J D / F / / / / / / / / D / D _ D D D D ",
"` ` ` / ` ` / ` } J ` } } ` } / J J v o.5XBXI : E.C.5.~.7X8.I.I.)./.g.'.tX).fXG.F.H.0.P A / / ` / / J / F / D D _ F D D D D D D ",
"` / ` / / / J ` J J ` J ` ` ` } J J { 1 n - 9 T.D.F.q.3.F./.D.I.3._.j.S.0XrX].R./.3.V.M H D J Z D / / J / D D D F F D D D S D S ",
"/ / / / J / / J J ` J ` F ` J F J J J { C < C BXI.i.6Xj.[.H.4.m /./.!.j.H.H.tXfX_.H.V.f H / A J F J / D D / D D D S D S D D S D ",
"/ / / / ` / / / ` J F ` ` J F F G F F K o.C v.9 Y.I./.H.F.tXF.i.3.Z./.S._.q.4X6.S.w.g Z D F Z F D G D D G F Z S F Z S S S S S z ",
"/ D F / F F / D F / J F F J F F J Z J H < 9 B (.h.4X).0.2 `.4.d./.g.7.~.A.C.F.H.].a.s D S A F A D A D A S G Z S D Z S S D Z S Z ",
"D D / D D F F F F F F F F F F F A } F Z o.> C B y.dXF.Z.).N 8.D.I.9.9.e.Z.w.A._.^.rXL G A G F k D A A Z Z Z Z Z Z Z S S S S S j ",
"D D D D D D D F F D A F F A F Z G G G s K b , i.i.8.).9./.g.i.8.P./.M.6.I.F.S.A.M.'.L Z D A G A Z D Z A Z Z Z Z Z S Z Z S Z S S ",
"S D F S S D G D D F A G G G A F G j G A K 1 - 9 D.D.`.: N `.0.D.q.G.S.H.w. Xe.!.M.J.d G G L G G Z A A a A A Z Z Z Z Z Z j Z S j ",
"S F Z D G D D Z D A D G D G F A G F A G L P 1 , d.a.5.N 6.C.4X`.fXq.q.S.w.].!.J.[.K.L L Z A Z G G Z A Z Z a Z Z j Z j Z Z Z Z S ",
"Z A A D F Z Z G G G A G G A A A D A G Z A f y B n F.h.a.9.C.tX0XtXtXw.J.[.!.!.!.m.t L a J A Z Z Z G Z A A a Z Z Z j Z Z Z j A j ",
"Z Z Z Z A Z A A Z Z A A G Z F A D G H A A f qX3 h.i.i.7.F.H.C.zXW.Z.zXw.A.M.J.K.H.t f Z s Z G Z A Z Z Z Z Z Z a q Z k Z j j j D ",
"A Z a G A Z A G G A A G Z G G G A G k L G s V.m n /.4X5.; a.C.R.V.I.R.[.^.K.[.!.R.t L L F a Z G Z A G Z Z a j k Z Z Z k j j Z k ",
"G Z Z A A A A A A A G A A G A G D G H D q s I y D.8.j.1.7.6.Z.].rX0X'.rXpX[.J.|.V.L L a S S S S A A A Z Z Z Z Z a j Z a j Z Z j ",
"Z Z Z A G Z Z G G F D G G A F F A G D G A f g 8.`.0XH.u - 3.e.].P.'.).).eXuX|.).t d Z D G Z A A A a Z Z Z Z j j Z Z k k j k j j ",
"G Z Z A A A Z G A A G G D G G G G H x j D v g M D.G.3.i H.uXq.Z.).rX0XeX^.pXK.W.t s j S D Z D s Z G Z Z L A A Z Z Z Z k Z Z j k ",
"G a a A a G Z G A A G A G G G G G Z / S x x g y wXR.I w.[.).p e.rX|.uXuXrXJ.J.K.P G x z D k H Z G Z Z Z k A A A k D k A j j k j ",
"Z Z A A G Z Z G D G A F G F G G Z G ^ S x H d W.yX|.rXA.R.[.t.S.q.|.|.|._.).K.m.d q D z A Z A A A A Z G A A S A A j A k k j j k ",
"Z Z A A G Z G G G G G F F G J G A G S z x x d vXzXzXpXK.rXR.H.e.0.rXM.H.6X).^.rXg a Z j A H L s G D G A A Z D k x A x x x j x k ",
"Z G Z G S G S G G F G G J F G G G A D / ^ z a vXbXzXK.q.G.A.6.J.K.M.K.H.).).G.'.d A j S k Z s J A D A D D x A D D x k D x x k x ",
"Z Z S Z D G D F F F F F F F F G G G / H v H k CXqX].[.).J.|.N.H.|.|.0XH.].W.|.g s j w S S Z A A D ^ D D D ^ D D D D D x x D k k ",
"Z G F G D D / F F F J J J F F F G Z / ^ x D J f lX0X).H.K.[.J.m.m.K.m.nXyXrXZXd s j Z S Z A L D D D ^ D D D D D D D x D x x j k ",
"S D G D D F D F / / J J J J F F / G D Z J j A d wX'.0.p K.J.|.m.).m.R.nXrXP.L.d c x w S S F v G F S F D D D F D D D A D Z k k Z ",
"S D G D D F F / / J J J J / F F a q } / ^ F s L L ,XyXM.m.J.m.J.M.[.|.pXV.3Xf a c k S S D v G F F F F F G D F A D D A A A L k Z ",
"G D D D D / F F F / F / / / F F F Z S D w S G d d wXI m.w.i J.J.M.rXnXzXW.lXf d s a Z S x v A F F G F F G G F F A D A A A A A Z ",
"D D F D F F F F / F / F F F F F F G D / [ j D L L t W.G.K.m.J.K.[.pXlXlXaXdXg d d Z a S H A D D F F F D D D D S D D x D A x D k ",
"S D F F F F F / F F F / F F / G G s H a Z A A a L G.lX|.[.J.[.[.'.nXnXV.xXxXb s c a Z S x v x D G D D D D D D D D D D D D D S x ",
"D D F F D / / F F / F / F / F F G J s Z J Z Z A P yXL.nX|.|.|. XyXlXnXjXNXAXf c c a Z Z k x W ^ D D D D D D D ^ ^ D D D x z D S ",
"D D / D D / / / / } / D D / D D H G D D j D Z D n.bXvXwXaXnX0XlXbXlXgXsXDXDX9Xj z z j z z w _ S z D D S D D D F D x D / x z S D ",
"S D D D D F D D D F / / / D D F D D D D ^ D A n.q n.>XkXkXjXDXFXDXNXL.>Xn.%Xr n.Y w S S w S S D z Z z Z z z z S D S z j D x j j ",
"D D D D D ^ D / / D / F D z D x D H S S S w ( # n.# # b.r R b.&XT 1X# Y b.UX&XT e W w w Z a q Z j j k j k j k k j D x j A Z j j ",
"D z x D D D D F F D D D D D D x F q Z S _ ^ h % r &Xr r R b.R %.%Xb.T r X.UXb.&XQ l Q h k Z q q j j j c j j j x j k j k j k k k ",
"z x x x x x D x x D x x x D D x j D a Z a c <XT.jXsXsXjXn.GXn.jXNXxXjXkXDXJX1XjX  b b l b e h h w h h h h h h h x h c x j c j h ",
"j j j j j j j k j x x k x z j x _ z S F a t P.tXbX0XaXV.3Xp.fXcXxXgXwXaXSXxXxXxXJX$ ! b ! Q h E h l l l l l l l l z l l w w z z ",
"a h j c h j j j j x j z k c h ^ Y Q W z b P.tX5XfXp.lXwXVXVX<XaXlXaXxXdXBXBXDX+.=X%XKXmX*XQ E E E E Y E w E w w l Q E E W W l l ",
"h h q j a h j h j x j j D a Z =.sXFXFXJXSXE.hXY.cXI.E.xXdXxXaXCXdXqXlXdX:Xv.V +.,.Y KXKXKXFXKXJXKXFXKXFXFXKXFXFXPXmXn.w E Q E Q "
};
