/* XPM */
static char *_7e0133436b540baf19d92c329d0eea28xg3bR0Lb660K2Ze[] = {
/* columns rows colors chars-per-pixel */
"64 64 256 2 ",
"   c #1A2A00",
".  c #132D00",
"X  c #263800",
"o  c #343D00",
"O  c #333D0A",
"+  c #2C4200",
"@  c #2C4700",
"#  c #334401",
"$  c #344C00",
"%  c #3B4B01",
"&  c #3A4705",
"*  c #3B5300",
"=  c #385504",
"-  c #424C02",
";  c #435402",
":  c #445B01",
">  c #4B5B02",
",  c #465C0C",
"<  c #4B5C0B",
"1  c #485406",
"2  c #535D08",
"3  c #4B5B14",
"4  c #475716",
"5  c #555C16",
"6  c #414C11",
"7  c #466202",
"8  c #4C6402",
"9  c #4D640B",
"0  c #4B6906",
"q  c #546403",
"w  c #536B03",
"e  c #54640B",
"r  c #546B0D",
"t  c #5C6C0C",
"y  c #5B6806",
"u  c #5C730C",
"i  c #597406",
"p  c #4C6312",
"a  c #4B6518",
"s  c #546A12",
"d  c #5B6C14",
"f  c #556A1A",
"g  c #5B6C1B",
"h  c #566416",
"j  c #5C7214",
"k  c #5C731B",
"l  c #587616",
"z  c #4F7000",
"x  c #636B08",
"c  c #63730D",
"v  c #687909",
"b  c #636C17",
"n  c #637414",
"m  c #647C13",
"M  c #6B7C14",
"N  c #63741B",
"B  c #647B1C",
"V  c #6C7B1B",
"C  c #6B7518",
"Z  c #727D1D",
"A  c #747A1A",
"S  c #4E5824",
"D  c #5B6C22",
"F  c #566825",
"G  c #5C7423",
"H  c #5E7A24",
"J  c #4E6521",
"K  c #616D23",
"L  c #6A6C28",
"P  c #637423",
"I  c #6A7523",
"U  c #647C24",
"Y  c #6C7C23",
"T  c #6B7C2B",
"R  c #65772A",
"E  c #727B27",
"W  c #697835",
"Q  c #747D35",
"!  c #6A6E2E",
"~  c #6A7145",
"^  c #68830C",
"/  c #6C8214",
"(  c #66821B",
")  c #6C831C",
"_  c #6C8A1B",
"`  c #668413",
"'  c #738413",
"]  c #73841C",
"[  c #738B1C",
"{  c #7B8C1D",
"}  c #798817",
"|  c #78921C",
" . c #768B10",
".. c #6C8423",
"X. c #6D8B24",
"o. c #6C832B",
"O. c #688525",
"+. c #738423",
"@. c #7B8325",
"#. c #748B24",
"$. c #7B8C24",
"%. c #73842B",
"&. c #7A832C",
"*. c #738B2B",
"=. c #7B8B2B",
"-. c #749324",
";. c #7B9325",
":. c #76932B",
">. c #7B942C",
",. c #7D9A2C",
"<. c #799A24",
"1. c #6C8635",
"2. c #738433",
"3. c #748B33",
"4. c #7B8C34",
"5. c #758C3A",
"6. c #7B8C3B",
"7. c #7A8536",
"8. c #7C9333",
"9. c #7D9B33",
"0. c #7D933B",
"q. c #789537",
"w. c #6F9238",
"e. c #7DA236",
"r. c #7A8A45",
"t. c #7C9544",
"y. c #7F9255",
"u. c #828A1A",
"i. c #87981B",
"p. c #818B0E",
"a. c #828D2C",
"s. c #858C24",
"d. c #829424",
"f. c #83942C",
"g. c #8A932C",
"h. c #849B2C",
"j. c #899A27",
"k. c #919C2C",
"l. c #848D33",
"z. c #828D3B",
"x. c #898E36",
"c. c #849433",
"v. c #8A9533",
"b. c #849B34",
"n. c #8B9C32",
"m. c #84933B",
"M. c #8B953B",
"N. c #849C3C",
"B. c #8B9C3A",
"V. c #939C3C",
"C. c #939B35",
"Z. c #8BA32D",
"A. c #87A22A",
"S. c #95A52B",
"D. c #8CA435",
"F. c #8DA33B",
"G. c #8CAA3B",
"H. c #87A637",
"J. c #92A335",
"K. c #94AB34",
"L. c #93A43B",
"P. c #94AB3C",
"I. c #9AAC3C",
"U. c #9BA53A",
"Y. c #98B33A",
"T. c #90B530",
"R. c #A4AC3D",
"E. c #A5B63C",
"W. c #A0B12F",
"Q. c #87A91D",
"!. c #818D42",
"~. c #859B43",
"^. c #8B9C43",
"/. c #889747",
"(. c #939C42",
"). c #959B45",
"_. c #8A9A54",
"`. c #919652",
"'. c #8CA343",
"]. c #8AA648",
"[. c #94A442",
"{. c #9AA444",
"}. c #94AB43",
"|. c #9CAC44",
" X c #93A44B",
".X c #94AC4C",
"XX c #9BAC4A",
"oX c #9BA44C",
"OX c #9CB344",
"+X c #9CB24C",
"@X c #97B547",
"#X c #8DA455",
"$X c #9BAB53",
"%X c #97A756",
"&X c #9CB453",
"*X c #9DB757",
"=X c #A2AD44",
"-X c #A3AD4C",
";X c #A4A846",
":X c #A3B344",
">X c #A5BB46",
",X c #A3B44C",
"<X c #AAB44C",
"1X c #A4BB4C",
"2X c #ABBB47",
"3X c #B2BE49",
"4X c #A2AD57",
"5X c #A3B353",
"6X c #AAB554",
"7X c #A3BA53",
"8X c #AABC53",
"9X c #A3B45C",
"0X c #ACBD5B",
"qX c #A7B95C",
"wX c #B1BA56",
"eX c #ABBC63",
"rX c #A6B765",
"tX c #B5BE68",
"yX c #A5B267",
"uX c #9EAB59",
"iX c #AAC34B",
"pX c #B6C549",
"aX c #ABC355",
"sX c #ABC35B",
"dX c #AAC659",
"fX c #B2C353",
"gX c #B3C35C",
"hX c #B7CA59",
"jX c #BAD35A",
"kX c #BAD44D",
"lX c #ACC566",
"zX c #B5CB63",
"xX c #BACC63",
"cX c #B7C767",
"vX c #BBD468",
"bX c #B9C974",
"nX c #BCD574",
"mX c #A9C173",
"MX c #9FC349",
"NX c #C4CA59",
"BX c #C6D45B",
"VX c #C3C94D",
"CX c #C3CA66",
"ZX c #C6D669",
"AX c #C7D875",
"SX c #CDD671",
"DX c #D5E676",
"FX c #CEE472",
"GX c #E4F079",
"HX c #BED380",
"JX c #C9DA86",
"KX c #D5D884",
"LX c #D8E884",
"PX c #D4E98C",
"IX c #E7F688",
"UX c #EEF6A1",
/* pixels */
"BXFXVXg.a.a.$.b.*.r o.lX%X*XyX, f * %Xo./.2.W 3 3 D ^.*..XN.f.CX>.m.F /.V.R.a.oXC.i '  .>XA.,.OXY.CXy lXB.V.-X<XE.E.hXK.E.kXiX` ",
"pXR.NXC R.hXU.q : #.9.u :.#.6.s t.].g 1 < 5 R 5 6 P ~.+ 5X*.c.B.x bX5 K -X2 ).n cXq 2Xj.OX@X| dXY.' ] SXx +.-X] i.>Xj.j.BXT.h.: ",
"x y x u.VXk.pXv $.;.P.Z.S.2XLX%.X..Xs , 1 ; * + o.H N.N.U q >.P...yX`.D b Z {.v.-XV hXj.Y.Y.i | }.t 6X#.I.v.0X] i.d.J.|.CXm.- %.",
"A ;Xs.s.x pXBXW.S.h.I.E.Z.>X,X,X( AXp p : N ~.%.~.8.l 9 o...*.=.4.< 2.`.^.5X).AX6Xn.D.{ A.Z.K.@X#.*.$.:Xi P.L.AXvXf.s.,XeX- D W ",
"x wXU.u.p.3XE.pXDXL.L.c f.|.5X0X7X'.+X&XPXN.O..X].lX*Xe.rXw.lX+X4.h W P eX-X%XtX7.-Xm.2 aXh.i H._ F.+.dXZ.iXI.j.' aXOXwXm.tX7.7.",
").x.C.C.R.BXS.E.DXK.gXB.c.E Z x }.' u 7XdX@Xl :.e.( ` e.l w.l X.9 F F r.d rX7.o L Q P z.#.OXhXgX-.h.N.FXjXiX| v ' f.6X|.4.eXb !.",
"4Xx.;X<Xs.2XGXkXE.iXb.+.n c.v.v M h.r 8.>.H.H.l e.X.,.G.,..X].t.J 4 S 4 4 6 r.K F L 4 7.4XF.f.} / / 4..X7 / ] ) f.5X& `.yX5 - D ",
"x.x.wXy u.hXv E.:XK.}.M *.b.B.}.=.]  XU ~.F.u *XPXMXY.<.<._ G.X = X 1.$ S ! r.3 4 6 W W tX$XXX|.xX#.9 eXB.i : m.> .Xm.6.4X1   W ",
"OXb.XXy :XI.J.F.+X9Xd u u 0XrX XM.M.rX(.B 5.U  XxXT.Q.Q.<.MXnXt.a & H D a # D ! F & ~ S # JXh E $Xz.b CXc.d 4.e h.Z.jXh.IXG.>.m.",
"| v xXAXgXd.{ Z %X% 0.N }.sX9XT K I b eXm.4.* r 7 T.iXT.<.H.dX( f 1.l *.5.G G #X4 6 S ! 5 5 tXL b I x.4XY E ^.+.d.BXY.fXZ.H.: 8.",
" .pXL.=Xj.s.M Z g o &.bX.XC yX!.m.$XKXP  X/ ) b.D.OXv ;.aX,.` z w.p 0 3.].$ O.k < !.yXh ).> Q ).%Xz.tXM.E qXcX$.| S.E.| P.) 4.t.",
"Z.S.L.c ;Xg.v.).h 5 7.h &.l.E e V.eXT h 7XaX1XP.F.V 3..X&X].dXe.7 l l :.*Xo.o.0 B 0.e < 7.-Xb l.o ).&.E I 4XL.K.Y.S.iX<.;.+.. t.",
"@.> ^.d -X2 ).;X7.%Xr.p e % 0X@.d Y E b.K.Y.v b.d m.%X/.H y.@X:.= ].@Xe.MX( ` ,.n +.#.B./.bX%X).).5 b 5 &.v.<Xj.>Xv 8X[ V : N 3 ",
"s ^.< tX4XI tXJX# 1 /.5.j .XD.vX: N N c D.vX+Xt e P 2.D a H w.e.e.` e.` e.O.e.FX_ zXL.y z.x.tX;Xx.A b x.6Xg.' fXGXd.:X+.c.0.1 1 ",
"H T 4.n ,Xv b.m.AX6.t.X.@X@XOXvX9 % ^.r 8.+.: oXeX).^.V @ 0 ( e.].@ dX` = *XdXnXhXZXaXhX&.&.M.o wXC.g.C.S.R.xX> :XJ.y t z.Q 1 & ",
"9 r q F.jXFXOXDXN 9 7 *Xz z ^ A.qX_.% 5.9 qXyX< *XY  X0.a w.O.e.= HXe.X.HXe.].@Xh.` d.OXV.# &.V.C.k.C.R.E.3XV.> f.|.2 E /.g K & ",
"V q d.fXY.VXT.| ( : F.( ` -.e.<.:.f r.t.2.!.5.U o.0.k k H = 0 .XdXi ..k t.1.rX3.$XXX8XP.,XL.f.hXv R.g.A j.fXc C (.q v.Y z.%XI 1 ",
",X,X^ ^  .W. .P.X.8.$ nXl -.e.-..X9 D G h 4 %X9 1.9 p H 1.( O.@X` -.*XU #XrXr.yXz.[.[.:XDXhXL.,X<Xx j.v OX|.$.V m.N %.B.1 2.N U ",
"B.n.i.iX' $.t *X1.G $ l :.:.<.G.:.N.q.o.9 mXo., 1.1.p a l 9.-.T.` 9.~.].f G t.2.N *.c.+XV.[.@.#.ZX|.-XA s.d.A V V m.}.c n e ) ..",
"gXJ.GXS.d.L.< R p h H 1.w._ ].` ,.-.N.~.U 1.5.* 9 f H 7 e._ MXH.@X:.l 3.R D X t.%Xe $ bXq m.E eX0XxXAX' M =.[.L.f.6X|.%.,X7X=.B.",
"Z.I.8Xd.$.M.s T h = 3 5.].].*.H._ *XdXw.9 s *XB = z O.H.X.7 G.z H.H.l O.G %Xt.w.t.0.6.2.f p P > t E 6X0Xn {.=.cXB.gX+X+.qXB.7X+.",
"LXA L.+.* c.^.P $ 3 ; JX].o.o.@ *Xl O.O.1.s ].o.*X( u nX( ,.*X-.( :.lXH H #X1.y.3 #Xa %X^.; e eX@.AXc.wX@.t 6XL.6X] [.c #.P.#.o.",
"v ] u M ] M %.R R ; &.8.m.~.JXX a t.f a H l $ 0.H o.R H ].9 9 *.lXF.w.3.H 1.r.= = /./.s eXvX1Xv 0X[.v.=XM U.B.2X{ w M ) +X) =.$X",
"a.] @.c.@.$XI ; % P .X#... Xk R p = , yXk = w.9 $ %X1.+ o.5.*.&Xo.= t.p W R J y.F $ s *.F.d.jXY.f.V.U.d.g.v pX2Xu.:X<Xf.,X#.t 7 ",
"C @.@.9X# T yX%  X X4.o.m.o.^.s = l t.O.= * rX+ $ B '.eXr ~.2.%X= * t., G $ F = #X, ].:.AXZXY.^ i.S.k.BXZXhXR.j.^ :X|.|.M 8X: ^.",
"Z [.f.XXV _.1 s eX&.r ) u :.C 8.+ s a .X0.X.0 B ..'.b.+X0X'.d %X9X5.U = 3 @ a @ @ 3.= b.'.A.ZXj.i.3XE. .u.3XhXg.:XV.cXV d.|.M zX",
"5XC.xX2Xf.n.5Xb.b.D.I.h.ZXOXF..XO.o.dXdXlXG.dX+XH.AXH.7Xb.B.+.*.~.%.o.s l s bX$ 9 $ qXo.*.}.t =.fXj.S.<X=X,XtX;X@.$X&.z.[.[.C +X",
"6X8XxXL.d.aX[.0Xn.;.| Y.FX' F.>.( ].H.( <.}.@ O.9.'.+.:.F.) / }.9X0.T o.*X1.%X*X*Xl lXj 8.o.# Y :XBXL.<Xy C d L T ).Q N $X@.qX+.",
"qX%.%.=.M w #.u F.N.'.+X( X. Xk o...0 X.l r O.w.q.7 e.w H.7 *X..T 6.R F yX#Xy.= l ].8.X.d /.I !.c.AXAX&.o z.4Xb 1 !.%XrXN B.=.4X",
"v.] V n M 1Xb.( o.$ 8.zX: F.j : : dX9._ e.w l ( *.0 0 ` H.zXO.3.< `.% 3 J F w.t.rXo.8.+ > Q h K & l.PXm.- z.b !.Q l.C x o b {.q ",
"FX} :X/ h.y +X4.eXO.#X( '.qX#.u .XlX9.X.z Y.G.<._ A._ -.:.= *.3.g /.4 & y.#XG F f ].lXbX_.P - 4 5 1 JX!.c.c v.A g.<XhXx @.V.{.hX",
"n.I.S.i.i }...: s '.lXr vXP.+X:.'.9 ( nX}.G._ ^ :.<.G.dX#.:.7X:...1 D 4 r.J F 1.f t.yX~.^.#   b h > ).Q v.C.SXCXj.wX:X{ 6XL.CX8X",
"|.L.U.> 5XZX+.e N.AX..$.7X%.% < : ~.: 3..X:.H.G.,.,.F.zX[.+Xh.G.}.9 $ w.+ J a = F mX#X X8.'.].( 9.&XgXiXj.SX:X=X;XL.;X=.q @.XX,X",
"Z qXV a.B.|.+.5Xe n V N.}..X%XG #XU @ s + O.i i / F.&Xd N.qXlX'.: U #XJ 1.y.= = . /.mXo.0 O.@XvXl iX-.P.BXhXJ.J.<XcXx {.7.- vXvX",
"b (.%Xl.AX] c o m.$X* n }.b.B j %.N o.F.'.G.A.| ` [ >.u 0.4.k 9 U k F rX1.a @ O 3 JXoX+.=.0XAX*._ ^ aXOX' J.] ).A A ;XZX@.B.5X] ",
"1 &.).CX6X,XgX[.o ^.N : *.b.*X$X1 r O.` MXG.A.A.[ h.&XV Y 9 1.F f 1.@ = . J W J R 9 C : $.+X; '.-.[ xXaX,Xv.x C !.E A E a.v.0X: ",
"s.;XC o l.> ] L.B.zXV : *Xl t.a 5.~.B b.<.A.MX_ K.z 1XAXq.; < o.H H w.= J O.w.y.( .Xn.u ` { / b.hXvX}.7X@.v.a.C 4XE @.).(.=.ZXhX",
"s.<Xx eX).&.-X#.8 nX7Xl 0 9 #Xt.o.O.&Xr G.G.A.T.Y.@Xw nXB 8.B U @ O.w.w.a ( X.e.9.F.#.f.>X2Xh.|.D.G.r +.: M b b A > 0X; q V A d.",
"A CXa.).M ,X,XXX%.h ; G HX3.q.$ B 8.B nX@X@XT.aXY.@X;.M *.b.+.` w.w.w.e.w.( ` O.( &X<.Z.hXY.;.L.;.zX@XF.: =.N z.KXKX-Xs.s.{.g.6X",
"C.s.a.a.f.V.$.B.% T 3 a 5.p > ( m * nXH.].lXu <.;.b.B.*X( :.vX| w.lX= w.l 7 O.= * '.` ZX>X{ n.qXw xX0X7Xv M M.E AXM.wX-X=.@.f.x ",
"V.-XrX2 V x XXFXc.m.^.g U 2 3.5XOX1Xb.vX..( _ <.w X.N.8.%.j <.h.<.` w.= m.*.r B F.u >.K.Y.E.hXb.t ..'.i ^ d.pXL.V.b E l.tXCXA wX",
"V v.4X> d =.n @.c qXlX6.k ^.8.d >.1XM ,.H.u 9.,.) B ( '.w ( -.-._ @X-.O. X8.) c.V ) ' fXZXk.<XU.lX&.: V K.E.hXI.a.C @.UX4X-X;XR.",
"] f.[.4.C lXC cX1 rXK N Y B.d c.c PX;.&Xi ,.,.X.H./ #.8.>.) _ i u iXG.:.cX'.b.Z.A.1XM vXs.{ wXSXg.cX: M J.[ |.g.s.hXx CX<XC A x ",
"$.wX@.[.wX0XXXj 7.T 1 !.N d B.Y # 5X8.7XB _ zX}.+._ ,XP.[ zXG.aXw ,.;.[ f.n OX/ hXd.1XaXCX).KXCXwX5XB.c.L.F.gX+.x I.R.FXA ).).KX",
"x cXa.;X<Xn.g.C X L 1 /.rXd T ; ^...'.U X.dX<.;.@Xi d.sXaXu >.>.b.>.dXP.aXH.m +.zXY.dXaX*.b `.;Xn B.%.E q u =.P.s.u.VXC.s.A ;X).",
"C A x V.f.DXn.> /.K `.mX3.k 6.$XT &.m.&X( w aXA.d.P.m >.sXB >.:.O.H.:.iX[ }.#.#.@XY.Z.<X- o 5 7.$X}.3.Y E M @.#.;XA ;XNXwXs.C.GX",
").&.&.g.c a.XXb !.2.T 4..X+X8.U M L.>.>.+.,.| | [ f.t 7 eX4.*..Xs = [ h.} ' I.hXS.GXY.LX! Q `.5 h ^.h @.q 5XwXtXC s.x wXSXNXGXVX",
").A ;Xx A y 6Xx.r.1 T 9 qXu m.LXqX: LXb.m G.K.D.1Xb..X0.3.1 r U s 3.w d.y Z.v iXW.kXvX8Xx.L L L E z.^.8.|.C E 2 ).oX2 s.x.u.;XVX",
"x.wX1 U.SX;XR.s.- b ^.3.j d N eX5XM 0X8 P.#.) :.+XN.m +.U o.e mX5.R 3.O.K.w ^ K.Y.OXG.,.P.tX/.I %XI t bXlXc b 5 ^.d > x <Xs.<XR.",
"x.x {.C.IXU.x ;XE 1 * m.1 =.PXP 2 n }.h.5X* ..}.^.N sX#.w *.h R 5.= 3.nXD.Z.i ;.aXzX:.+XF.;.v.M.AXp +.+X[.m.4.2 h E Z M A ZXNXu.",
"3XwX).A 2 ;XwXNXU.=.lX~.bX~.d C >.OX:XsX%.4.$XN.~.*.F._ ( j B *.r *.@XG.A.Y.sXf.}.zXb.lXH.D.q gX0Xe *.c.B.~.d N [.C |.fXC.2 E @.",
"SXx ).V.CX).g.u.c L.c.].N.0 j sX1Xh.xXB.%.k 9 B '.8 0 OX:.}.}.B >.) -.jXA.z n.zXc.'.l N.r L.] 6X[.] % c.C q N E > y } U.x b x.x ",
"C.;Xu.u.;X;XC.x 0X>.9.AX*X( -.9.aXG.lXr 9 p ~.&X8 _ K.A.` -.@XH.[ 1X8.9.ZXu ) ,XAX7.X t.8 OXSXV.C P.AXn.$ xXP.) Y.^ j.Y.C.R.- ).",
";X<Xk.A VXVXC.R.M P.-.vX7 i 7 }.aXw lX$X, 1.$ N.sX7 i b.#.7 .X8 m ZX8.O.[.+X+XcX% r.r., 4.v.wX@.v.cXc $.d.OXOX_ ^ v ^ { SXv ).CX",
"wXNXSXVX3XC.x ;X} AX@X*.*.sX:.X.#.: d  X#   U *XlX0.9 3.o.4 1.f t .Xr 3.sXw E V.E T F X T I E V.{.a.v.A c D.>Xh.;./ AXI.v.C a.4X",
";Xx VXVXu.VXR.R.v ;.] @ *.7 ` w m AX* P /.#XJXs = R X F J 4 W F P U , 3.JX>.5XV tXbXbX/.I 4Xx.M.g.n ;Xh.D.D.K.,.u P.P.v.t {.4XV.",
"x wXg.NX<Xo Z VXE.pXE.x i.{ 2X| ' Y.vXJXI 2..Xf % 6 4 # & # h 5.t.3.t.: *.#.$.=XC C bXg 2.%.E <XR.=XI.$.ZXh.K.Z.| | ;.<X* |.J.h.",
"@.C.SXA @.M.R.u.p.i.S.R.p.s.Z.S.' 2XAXXX Xm.JXm.o 4 , * tXQ U F.j 2.H G o...$.v (.h %X: I V CXZ g.cXgXV.hX;.H._ | hXD.G.;.P.f.FX",
"A u.U.SXwXA g.k.VXS.VXp.i.' % FX|.v.<XaX=.}.J.8 B g 5X&XlXzXZ.D.*.~.].t.^.cX6X{.K 2.f , $X$XcXE 4Xs.e eX^.$XsX/ :.| OX|.,Xb.$.>.",
").s.v u.SX;XhXu.E.BXi.i.BXR.} n.> u hXL.L.i SXfX/ &XgXi 0 vXpX>Xm 8.t.lXPXlXlXqX!.& & 1.G 9XCXz.).z.bX9XQ o.&.$.m w [ -.#.w #.,X",
").- x s.U.U.k.R.GXBXBXW.GXS.hXaXv.=.V $.M ' h.n.m @XzXxX@X$ D.}._ O.e.X.$ q.* g ~ . S y.S !.yX2 L T Q Q 5 /.y |.jXiXK.{ v ) H.zX",
").x.;XC.h.s.3XS.k.E.BXGXBXS.K.h.bX$X'.c.}.H.1Xi q 7Xw [ G.@Xi b.= e.<.<.lXk %._.& O . ~   L 5 S - %X~ Q K /.e gXDXfX1Xi b.8 zX>.",
"b ).KXL l.n.s.U.3XVXkXW.T. .^ [ &.3.N n o.k .Xk : .Xh.w H.@X<.<.T.e.` <.0 +Xc./.r.S + + # 6   F O S !.S & x.,XOXJ.:XM F.>...B F.",
"x @.;Xx.y 8Xx p.E.u. .Q.pX .jXi * q.3.%X%XyXlXk JX:.h.^ ` -.dXIXMXT.T.T.^ X.H.X X 4 S J & ! ! S ~ S O O W I v FXx 1X|.zXc.u 0 gX"
};
