/* XPM */
static char *ca4bbea96ade4cad9555d46d2cf2eb97OQAcmDyr88fIfSQ4[] = {
/* columns rows colors chars-per-pixel */
"64 64 254 2 ",
"   c #040501",
".  c #0C0501",
"X  c #0B0A01",
"o  c #060B07",
"O  c #1B0200",
"+  c #130C02",
"@  c #1A0B01",
"#  c #140703",
"$  c #0D110A",
"%  c #14140D",
"&  c #1A1508",
"*  c #1B1B14",
"=  c #1C1D1C",
"-  c #151916",
";  c #290100",
":  c #260A02",
">  c #370A01",
",  c #291807",
"<  c #361805",
"1  c #231C15",
"2  c #3E1C12",
"3  c #1B221B",
"4  c #182218",
"5  c #37240B",
"6  c #2C2414",
"7  c #2C291D",
"8  c #25231A",
"9  c #342B1C",
"0  c #3B2D1C",
"q  c #382814",
"w  c #3B321C",
"e  c #383018",
"r  c #2A200E",
"t  c #191F24",
"y  c #1C2223",
"u  c #1D2429",
"i  c #222324",
"p  c #292926",
"a  c #352E23",
"s  c #3A3527",
"d  c #343729",
"f  c #461B05",
"g  c #4B260B",
"h  c #55280B",
"j  c #492A16",
"k  c #592B15",
"l  c #43351B",
"z  c #48361A",
"x  c #593518",
"c  c #66371B",
"v  c #672F15",
"b  c #482C23",
"n  c #4C3C23",
"m  c #453927",
"M  c #563926",
"N  c #4C3830",
"B  c #653B26",
"V  c #733D27",
"C  c #4C4129",
"Z  c #58472C",
"A  c #494433",
"S  c #544B33",
"D  c #584A35",
"F  c #5B523A",
"G  c #674529",
"H  c #76482A",
"J  c #6A4935",
"K  c #764B35",
"L  c #675639",
"P  c #79553A",
"I  c #7A502F",
"U  c #7F6A3F",
"Y  c #595548",
"T  c #665B44",
"R  c #775844",
"E  c #6F4D41",
"W  c #686149",
"Q  c #79684A",
"!  c #6C6B5A",
"~  c #776957",
"^  c #797159",
"/  c #787463",
"(  c #854D37",
")  c #8B5B3C",
"_  c #865739",
"`  c #945838",
"'  c #834D2A",
"]  c #8A653C",
"[  c #97683E",
"{  c #865A46",
"}  c #955D46",
"|  c #89574E",
" . c #8B6343",
".. c #8D644B",
"X. c #886948",
"o. c #936443",
"O. c #936B44",
"+. c #956B4A",
"@. c #9C6C4B",
"#. c #996648",
"$. c #8B734A",
"%. c #9C724C",
"&. c #967549",
"*. c #866953",
"=. c #986B54",
"-. c #897656",
";. c #9C7453",
":. c #977758",
">. c #A66A49",
",. c #A2734D",
"<. c #A9764E",
"1. c #A56A55",
"2. c #A47553",
"3. c #A57A55",
"4. c #AB7B55",
"5. c #A4745B",
"6. c #AB745B",
"7. c #AC7C5B",
"8. c #A87857",
"9. c #B37B5B",
"0. c #B87A59",
"q. c #B47156",
"w. c #867C65",
"e. c #9A7964",
"r. c #9E7B77",
"t. c #AA7A64",
"y. c #B57B65",
"u. c #AF7067",
"i. c #A25F4F",
"p. c #C17B68",
"a. c #C77B72",
"s. c #9C865E",
"d. c #AC825C",
"f. c #A6835D",
"g. c #B3835C",
"h. c #B8855B",
"j. c #97846A",
"k. c #8B8168",
"l. c #AD8362",
"z. c #AA8768",
"x. c #B38563",
"c. c #BB8564",
"v. c #B58A64",
"b. c #BB8B65",
"n. c #B58B6B",
"m. c #BC8C6B",
"M. c #B8856A",
"N. c #BD926C",
"B. c #B5936C",
"V. c #A98871",
"C. c #BC8D73",
"Z. c #B88875",
"A. c #A7937A",
"S. c #BD9272",
"D. c #B99578",
"F. c #A8926B",
"G. c #C1855E",
"H. c #C38463",
"J. c #C48B65",
"K. c #C38C6C",
"L. c #CB8C6B",
"P. c #C88769",
"I. c #D28C6D",
"U. c #C3936C",
"Y. c #CC916B",
"T. c #C99569",
"R. c #D1946E",
"E. c #D19B6D",
"W. c #C48C74",
"Q. c #CC8C72",
"!. c #CB8C7A",
"~. c #C58976",
"^. c #D38C74",
"/. c #C49473",
"(. c #CB9374",
"). c #CC9B76",
"_. c #C5947A",
"`. c #CB947C",
"'. c #C49A7B",
"]. c #CC9C7B",
"[. c #C59973",
"{. c #D39374",
"}. c #DA9375",
"|. c #D69A75",
" X c #D3947A",
".X c #D9957A",
"XX c #D39C7C",
"oX c #DA9C7C",
"OX c #D99A77",
"+X c #E29A7D",
"@X c #CDA27E",
"#X c #C4A07D",
"$X c #D4A27D",
"%X c #DCA27D",
"&X c #D8A377",
"*X c #D5A06E",
"=X c #E3A27D",
"-X c #B89883",
";X c #B68B85",
":X c #BAA489",
">X c #CD9582",
",X c #CC9C83",
"<X c #C69885",
"1X c #D29582",
"2X c #D49C83",
"3X c #DC9D83",
"4X c #DB9C89",
"5X c #D69885",
"6X c #D2918B",
"7X c #E39D87",
"8X c #E39C98",
"9X c #CCA383",
"0X c #C7A489",
"qX c #D4A383",
"wX c #DBA484",
"eX c #DCAA84",
"rX c #D5A48A",
"tX c #DCA38B",
"yX c #D5AA8B",
"uX c #DBAB8B",
"iX c #D6A986",
"pX c #C8AC94",
"aX c #DDAB92",
"sX c #D9A894",
"dX c #DCB599",
"fX c #D4B494",
"gX c #E3A483",
"hX c #E4A985",
"jX c #EAAA86",
"kX c #E3A48A",
"lX c #EBA48A",
"zX c #E4AA8C",
"xX c #EBAB8C",
"cX c #E9A483",
"vX c #F4AC8C",
"bX c #FBAF8D",
"nX c #E4AC94",
"mX c #ECAC92",
"MX c #E6A897",
"NX c #F3AE95",
"BX c #ECB293",
"VX c #EBB29A",
"CX c #E3B496",
"ZX c #F3B295",
"AX c #F3B49A",
"SX c #FBB59A",
"DX c #FBB597",
"FX c #E7B389",
"GX c #D7B8A3",
"HX c #D0BCAA",
"JX c #F9B9A2",
"KX c #E7B3A3",
"LX c #E2C7AF",
"PX c #F7DAC8",
/* pixels */
"d d A / F e z z l r e e 5 5 e n F m 0 1 m 0 7 A 9 r , G  .7.[.oX{.{.G.G.0.` [ q.}.+X=X=XcX=XOX|.OX3XgXeXeXn.X.5 @ & X X % - o - ",
"! ! / S W Z Z C L L n r F z 5 z m m m m 9 N A m w w C s.D.t.2X XY.%XJ.0.` >.G.I.=X+X=X=X=X=X%X=X%X+X$XwXeXiX9X:.z # + & X o o   ",
"/ ! W d C z z z F Z L C e Z n Z 0 w w s m 9 m w 6 C -.e.B./.|.|.OXH.R.q.` G.=X=XvX=XcXjXvX=XjXFXwX7XOXwX|.uXiX9Xz.Z @ +   o $ $ ",
"! W F W C z z Z Z L L L n r z l A m F A Y a 7 r m D R X.v.b.b.Y.R.R.0.v 0.*X=X+X=X=XcXcX=XjXvX=XgXwXOXoX$XFX$X9XyXA.z @ X X o $ ",
"Y W n F C L U L Z Z z F C 5 5 e w A A A A A N 0 M Z P ..7.m.G.T.I.<.>.` E.=X=X=XjXcXcX=X=X=XjXhXhXgXgXoX=XjX=XFX9XrXV., @ . . $ ",
"Y / F S L Z n z z 5 F L S z r w s s 8 7 7 s 6 a n M P x.g.g.J.E.G.I.0.<.Y.=X=X=XjX=XcXjXgXgXjXxXzXhXFX%X=X=X=X=XwX].D.e.# # * + ",
"e C W Z z Z U L U L k.k.S 9 e e 7 7 * 7 A 8 6 j M J =.2.4.E.h.J.I.*XG.>.R.=XFX=XgXhXgXjXjXgXcXkXhXhXhX=X=X=X=X=X$XwX_.D.Q + + & ",
"! ^ k.C Z L Q L Q F T S 7 e 6 % & r s d d r a , B =.@.6.H.Y.Y.E.I.*XJ.0.R.=XjXjXxXZXZXjXzXlXkXxXzX=X=XhX=X=X=X=XhXwX].D.z.< @ @ ",
"S C S L Z Z Z F F l & & e 7 4 7 * 1 a A a 6 l g K ..7.Y.OXR.T.Y.I.R.I.>.I.+XOXgXgXxXxXmXAXxXBXmXvXFXgX%X%X=X=X&X*X%X@X9XD.Q @ , ",
"e S w e k.^ z r & l C 6 $ X & & * p s A 6 l n J =.C. XwX&XE.J.L.I.E.G.>.>.P.^.(.).tXnXkXkXVXmXmXxXxXhXhX%X&X&X=X&XeX&XfX0X#X, , ",
"d S e F F.Q e , r e 4 4 4 % % % 7 m s 9 e C R =.n.`.{.{.I.J.J.J.G.0.>.` ` ` >.<.2.>.M.`.zXnXVXAXSXBXzXhXeX%X$X$XeXeX@XyXyXGX*.2 ",
"A C w e ^ S l 6 r o % 4 4 4 % - d p a 0 0 P *.%.U.(.{.R.OXJ.L.K.0.>.>.` } ' } V c I c ( 6.!.4XBXBXZXBXzXeXeXqXeX%X%X$XiXfXGXGX< ",
"S F S W D m m 9 & & - o % $ % 7 8 1 & 0 M ..{ 9.(.{.|.K.Y.0.P.H.I.I.0.0.y.0.4.` V h c g V <.M.M.gXxXAXCXaXuXuXwXeXwX$X@XyXLXGXM ",
"W w.T w.D S m 6 + p a $ $ * p $ - & a b J :.H <.K.R.J.Y.Q.3XgX3X+X0.q.R.K.L.2Xm.g._ v x v _ @.1.XXwXzXnXCXVXnX3XgX$X$XqXyXGXGXj.",
"Q e l e N A b 9 s 1   $ d 4 - % - $ T N *.5.H ` Y.E.Y.OX3XkXkX XH.J.G.I.oX XXXwXFXN.2.X.] #.y.>.c.(.uXnXaXMXMXVXzXwXuXnXCXGXLX:X",
"e W S Q D w.T ! 1 X % * p % X % $ Y b M :.I ' J.J.Y.Y.%XwXkXtX3XI.}.G.}. X9.7.dXyXfX[.2.O.,.4.x.(.].wXuXnXCXnXmXxXzXeXuXCXLXHXpX",
"e C W X.Q b N , + o - & X X * p p 9 6 Z ( H h.Y.Y.Y.|.zXzXwXwXcX}.>.>.} ~.rX<Xt.t.5.2XK.2.7.x.m.XXwXtXqXeXzXuXtXtXzXqXrXyXGXdXpX",
"e r x 5 < b , # % X X   X & d p a & 5 z I >.Y.R.L.|.zXBXzXwXwXxX}.` ( h f f { R C.W._ o.>.4.c.K.3XgXBXzXhXwX|.|.(.].XX].'.fXfX0X",
"L Z L z.=.E O 1 p 1 X X % X * % + . , G ,.J.OXR.|.%XzXBXzXzXlXmX=XY.W.5.< j ; | k P g.8.' 4.K.Y.oXhXvXBXxXoX|.(.c.L.K._.9X9X0X0X",
"U L Z s.E > b 6 * $ X X % & * % + , Z 5.[.Y.=XR.%XhXzXzXBXBXZXxXeXBXdX<X;XB ; g #.c >.c.h.0.&X{.OX=XvXxXgX|.Y.P.0.o.6.7.n.<X0X9X",
"*.Z Q ; J | , , , . + & X 1 * @ O M -.n.`.oXOX%XgXxXBXBXBXBXZXDXZXBXwXrXdX;X<Xc ~.y.` K.R.P.P.OXOX=XjXjXwXJ.h.4.4.) O.] { n.fX-X",
"j k { | | V E E @ @ , 1 1 s + & j *._./.XXoX{.gXFXZXAXAXZXDXAXAXZXZXnXnX>X<X>XZ.!.M.>.p.oX^.L.R.OXgXjXgXoX4.>.o.O.+.H G P $.:XpX",
": e.u.#.v k B M j j 5 , q N @ q J e.m.W.(.{.+XxXBXZXAXZXZXDXZXbXbXvXlXmXNXMX>X!.~..X XlX3X X XL.}.=XgXwXXXO._ I G I x x I L $.fX",
"P S.Z.1.} i.k K x > x X.Q G , z ..7.m.W.L.{.gXxXBXBXJXAXAXZXZXbXbXbXbXvXlXmXmXkX7X5X3X.X.X3XQ. X.X7XOX X].} G c c B x g x z G A.",
"Z.Z.KX3X+XxXnXc.H v &.[ &.x g P +.m.(.K.L. XgXzXmXNXAXAXSXAXDXbXbXvXvXjXjXjXzXmXkXxXkXkX.X(.{.^.}.7X7X.XtXH > k *.=.K M < j g X.",
"<X!.VXZXvXvX(._ h h &XT.[ I g ] 3.m.(.K.Q.|.oXlXxXmXBXZXSXSXDXDXDXbXbXvXvXNXxXmXxXgX7XoX^. X.X}.7X.XcX3XVX} =.e.K 0XsXV.K f M P ",
">X7XlXlX+X=XJ.` [ <.E.E.T.[ ' f.h.b.Y.K.(.|. XkXkXzXxXZXSXSXJXSXDXSXSXNXNXNXxXNXlXvX7X+X|.}.I.}.+X7XkX5X4XP K =.-Xe.t.<XV.{ x H ",
"y.5X7X.X}.G.0.J.%XT.&X*XG.h.g.h.N.b.K.K.(.XX3XwXwXkXxXmXSXJXJXJXSXAXSXSXNXbXSXlXNXbX+X+XI.H.P.^.}.+X7X!.aX=.G : 2 *.V.V.0Xz.P c ",
"a.a.7XI.I.a.L.BX%X&XFX&Xb.h.h.B.b.U.b.T.T.$XwXgX3XgXkXxXNXAXSXSXNXSXNXDXSXvXvXlXlX}.^.^.I.^.^.oX^.7X3X2XKXz.< : M < Z X.:.l._ B ",
"p.p.lX+X+XbXFXhXFX@X=X*XT.h.g.B.v.U.N.T.[.).kXwXoXoXgXcXxXmXmXmXlXNXlX+X+X^.}.}.^.a.}.^.^. Xp..XSXlXkXrXGXt.V.*.< O 2 P  .:.+.G ",
"^.^.}.lX=X+XjXeXiXb.FX#XT.f.h.g.N.N.N.N.U.$X$XoXXX XoX3XcXkXkX7X7X5X}.}.0.p.}.p.q.( v k } u.t.y.^.lXmXtXsXD.Z.j.j.K k f I o.@._ ",
"p.7X}.lX=X+XjXBXeXiXCX*Xv.v.s.B.[.v.B.N.[.qXXX).(.{.OXoX3X7X7X3X^.^.p.0.I.+XI.1.` v f > ; f t.6.Q.3X3X2XZ.D.D.B.<Xz.=.h c ) @.4.",
"| Z.4XtXoX=XvXFX%XFX).@Xg.v.d.h.T.T.N.N.).#X).$X|.(.oXOX3XgX XP.p.0.c.oXgXzX3X~.1.~.1.> > f v i.i.6.y.5.t.S.B.[.M.c.y.1._ _ 2.f.",
"> =.C.2XgXxXjXhX&X=Xb.Y.v.g.d.h.N.N.N.T.@X@X).).).$X{.%XgX X XP.P.}.|.nXzXkXMXkX6XZ.6X<X1.u.( ( K { } { { Z.W./.XX).(.M.#.l.f.B.",
"O 2 { <X`.XXwXjXBX%Xb.U.d.g.g.g.T.N.U.[.@X@X].@X).oXoXgXzX X3X).(.2XtXkXMX5X2X5X>Xy.>XM.u.q.u.V c h > f H t._.].3XXXtX_.Z.z.B.:.",
"# O O G Z._.2X$X).g.U.K.g.3.h.b.T.T.[.#X@X@X].).$X%XzX%X$X].`.Q.(.`.1X~.5X>X>X~.>Xy.y.1.| V v B v > ; > f ..2XqXqXXXtX,X>Xz...$.",
". # # O f K 2.9.1.H |.x.4.4.g.h.N.[.[.@XiXiX[.[.].eXwX$X`.K.(.C.!.2X1Xa.!.!.!.a.y.Z.y.u.} ( k x H P f > f ( uX].wX`.rXrXdX<XV.5 ",
"  $ . O < < f f f 2./.K.b.,.9.U.N.*X@X9XuXyX9X@X$XqXqXXX/./.m.m.W.8X7X7X1X7X5X4X>X5X4X1XW.M.n.} { =.{ f h =.`.wXzX2X2XsXdXpXD.< ",
"o o . # a M f f ) iXv.4.>.<.4.g.U.).].@XiXuXiX9XqX$XqX$X/.K.y.M.`.3X7X7X7XMXmXAXmXkXVXMX`.4XD.t.( { } V | 6.M.wXwXtXtXsXGX0X-X, ",
"o o X @ J ..;.=._.n.'.7.,.[ h.U.b./.'.qXuXyX@X].@XyX[.eX].m.S.m.6.1.#.} #.} 5.y.~.`.2XMXkX2X!.M.#.( =.1.6.} y.{.wXqXwXCX<X<XD n ",
"o o . q *.:.t.S._.m.m.l.7.%.<.x.m.U./.$XuXiX9X].iXiX@X9XiX@X2XB g k x G G J ..K K ( 1.~.4XMXMX!.u.( ) >.4.#.c.L. XwX`.nX0X:Xn q ",
"  $ @ T e.V.B.S.m.N.x.x.2.4.8.7.m././.2XrXqX2XqXiXeX@XuXyXuX>X=.f V.-.A.pX:XPX-XsXZ.E | u.Z.~. XQ.} H _ c.>.0.J.Y.{.).n.9X-XL j ",
"# @ C e.z.n.x./.x.n.v.2.2.1.3.4.x.U.[.,XqXXX].9XfXCXuXiX9XaXrXdX> ~ A w./ & m N HXGXsX;X| V 1.C.~.9.` 2.K.>.q.0.J.(./.m.z.:X~ , ",
", 2 *.:.z.x.x.b.S.m.n.5.2.%.4.d.n.K./.].qXqXqXqXFXdXuXiXnXCXnXKXe.: @ # X . # # O : N LXpXB c I t.M.o.#.H.<.>.0.H.K.b.l.D.:X5 & ",
", E :.z.M.v.U.b.b.b.d.d.%.@.O.4.v.x.K.].qX$XXXiXuXuXiXiXVXnXMXMX6X> 1 # # o     # # 2 N pX-XK g K #._ @.9.9.G.4.<.h.f.g.z.A.m 6 ",
"f e.V.Z.m.v.b.b.b.N.v.8.%.>.,.4.v.x./.@XXX2XXXqXeXCXuXuXaXMXKXKXKXpX; # . # $ o . $ 1 , J pX..f k } _ 2.g.g.c.J.0.h.[ s.z.T r / ",
"J e.z.y./.U.m.h.b.n.M.%.#.O.<.<.b.v.).$XqXwXwXiXuXCXuXdXnXVXKXMX8X8X;X2 # .     $ + @ , J *.GX> k _ ) O.4.g.J.g.<.@.f.f.k.l A ! ",
"| V.z./.[.b.).m.v.W.v.4.O.@.@.3.g.g./.].XXuXwX].eXuXnXuXaXMXMXKX8X8XpX;Xj # #   . . , b B E R f f {  .#.4.h.h.<.>.] ] s.L C r d ",
"3.N.m./.`./.(.m.C.W.C.x.O.] @.o.x.v.#X@XeXiXiXiXuXtXyXuXnXnXMXMXtX8XMX6X6XR N : # # # a b b E f j | ..#.s.d.h.&.[ ] $.U T F d 4 ",
"9.N.m.m.`.[._.[._.W.M.v.2.o.[ %.x.d.U.$XuXwX].iXCXuXrXrXuXMXnXnX8X6X8X8X8XKXa.a.r.b O O O ; : > B ..;.2.v.h.&.[ ] ] -.L 4 Y u 4 ",
"c.b.K.(.].`._.`._.W.C./.n.,.] @.x.d.@X).qXyX[.].yXyX,X9XrXsXMXtXtX1X6X7X6X8X8X6X;X;Xb ; ; M =.;X..l.n.7.v.h.&.] U $.Z r 4 4 u u ",
"c.K.U.`.2X]._._.[./.S.m.b.4.O.%.3.4.x.$XqX[.9X].qXyX,XrXsXaXVXtXtX~.^.a.6X6X8X8X8X;Xr.=.*.6X<XZ.-Xn.B.[.*X&.] ] ] L r 6 4 y y y ",
"K.P.Q.K.(.]._.]./.'././.x.3.4.,.,.4.v.m.[.9X[.S.9XyXyXyXaXnXVXkX4X1X~.y.q.a.a.6X6Xa.6X6Xy.y.Z.D.S.#X@X[.f.&.s.] *.< 1 - u u u u ",
"P.K.Q.W.(.2X`.]./._.[.].x.<.d.2.,.3.d.n.N.N.S.#XD.yXyXuXaXnXVXMXsX4X~.P.u.q.i.p.a.a.a.i.5.y.D.-X'.9X@Xv.&.] ] U A.N 1 3 u - t t ",
"a.Q.!. X`.2X,X].'.C.U./.4.&.4.g.O.<.d.d.v.S.v.'.D.9XyXfXaXVXVXAXJX4X1Xy.u.q.} i.i.i.u.u.5.6.D.9X9XyXB.f.[ &.] k.-X1 = i t t t 4 ",
"P.Q. X`.`.2X2X,X_.S.'.[.v.<.4.g.3.4.O.d.n.f.s.z.#X#X0XyXuXMXmXVXMXNX5X Xy.=.u.1.1.1.i.i.8.n.@X[.'.B.;.] &.] $.fX;X* u t 4 t 4 4 ",
"p.!..X!.2X].`.].'._.S.[.x.d.d.<.[ d.3.f.&.d.z.f.B.D.S.yXzXsXwXnXMXMXtX5XC.y.z.t.5.6.>.7.l.N.[.D.[.s.&.] &.U s.HX^ 8 i i 1 8 4 4 ",
"P.!. X!.2X,X>X<X_./.C.m.d.3.<.+.[ ,.f.<.%.&.5.&.B.0X#XfXrXuX4X3X7X7X5XtXsXrX<X_.M.7.8.t.n.S.D.B.s.&.&.&.U s.#XA.s - i i t t 3 4 ",
"!.1X X>X1X>X_.>X'._.x.l.l.d.d.3.d.[ f.f.O.+.:.:.z.D.n.<X_.qX2X4X7X7X1X5XtXrXrXrX].n.b.l.l.v.B.F.s.] $.&.] F.HXk.1 1 t i i y 8 = ",
"!.1X>X>X!.>XW.<XZ.'.S.l.l.n.l.3.f.<.&.%.%.+.] ;.$.z.;.D.9X>XCXtX5X1X5XkXsX4X2X`.(.W.U.f.f.F.F.s.$.$.Q U s.s.HX! 6 i = t p i y 8 ",
"!.>X>X>X`.>X_._._.<XC.n.7.:.;.d.f.[ f.%.%.] ] P ..X.=.:.n.M.W.C.c.t.K.2X2X X`.W.[./.N.v.F.F.s.s.$.s.L Z Q j.HXa 8 = u i u i i i ",
"!.>X!.>X6X,X_._._._.C._.n.5.;.3.f.%.,.,.;.X.) I ] P X._ =.2.7.5.2.o.1.W.!.`. X(.*XT.b.v.f.s.$.s.s.L z z N / Y 8 i t i y t i i i ",
">X`.>X>X>X>X>XC.n.'.C.n.z.B.z.&.%.O.O.3.O. .] H G g G c _ ]  .o._ I o.x.W.K.M.m.T.h.v.v.s.&.$.Q L r e e , p p y y y y y t i i i ",
"<X<X>X!._.<X>X_.Z.C.Z.'.D.n.z.:.;.&.] ] @. .] U I x g h G G H H ) _ +.y.W.M.6.c.h.f.f.f.&.$.s.F 5 e r 6 p * p p 3 u = y i i 1 i "
};
